HIERARCHY
ROOT joint_Root
{
	OFFSET 0.0 0.0 0.0
	CHANNELS 6 Xposition Yposition Zposition Zrotation Xrotation Yrotation 
	JOINT Hips
	{
		OFFSET 4.5925 91.4895 -427.239
		CHANNELS 6 Xposition Yposition Zposition Zrotation Xrotation Yrotation 
		JOINT Spine
		{
			OFFSET 15.7357 0.0 0.0
			CHANNELS 6 Xposition Yposition Zposition Zrotation Xrotation Yrotation 
			JOINT Chest
			{
				OFFSET 8.98455 -0.406207 0.0
				CHANNELS 6 Xposition Yposition Zposition Zrotation Xrotation Yrotation 
				JOINT Neck
				{
					OFFSET 16.3773 0.0 0.0
					CHANNELS 6 Xposition Yposition Zposition Zrotation Xrotation Yrotation 
					JOINT Head
					{
						OFFSET 6.45672 0.0 0.0
						CHANNELS 6 Xposition Yposition Zposition Zrotation Xrotation Yrotation 
						End Site
						{
							OFFSET 0.0 0.0 0.0
						}
					}
				}
				JOINT Shoulder_L
				{
					OFFSET 12.9942 -0.242716 4.98039
					CHANNELS 6 Xposition Yposition Zposition Zrotation Xrotation Yrotation 
					JOINT UpperArm_L
					{
						OFFSET 5.34809 0.0 0.0
						CHANNELS 6 Xposition Yposition Zposition Zrotation Xrotation Yrotation 
						JOINT LowerArm_L
						{
							OFFSET 24.3286 1.87007e-05 0.0
							CHANNELS 6 Xposition Yposition Zposition Zrotation Xrotation Yrotation 
							JOINT Hand_L
							{
								OFFSET 22.2916 0.0 0.0
								CHANNELS 6 Xposition Yposition Zposition Zrotation Xrotation Yrotation 
								End Site
								{
									OFFSET 0.0 0.0 0.0
								}
							}
						}
					}
				}
				JOINT Shoulder_R
				{
					OFFSET 12.9945 -0.242716 -4.98039
					CHANNELS 6 Xposition Yposition Zposition Zrotation Xrotation Yrotation 
					JOINT UpperArm_R
					{
						OFFSET -5.34813 0.0 0.0
						CHANNELS 6 Xposition Yposition Zposition Zrotation Xrotation Yrotation 
						JOINT LowerArm_R
						{
							OFFSET -24.3289 0.000322201 0.0
							CHANNELS 6 Xposition Yposition Zposition Zrotation Xrotation Yrotation 
							JOINT Hand_R
							{
								OFFSET -22.2915 -0.000108084 0.0
								CHANNELS 6 Xposition Yposition Zposition Zrotation Xrotation Yrotation 
								End Site
								{
									OFFSET 0.0 0.0 0.0
								}
							}
						}
					}
				}
			}
		}
		JOINT UpperLeg_L
		{
			OFFSET -2.19248 -6.46944 0.0
			CHANNELS 6 Xposition Yposition Zposition Zrotation Xrotation Yrotation 
			JOINT LowerLeg_L
			{
				OFFSET 39.0811 0.0 -1.23785e-05
				CHANNELS 6 Xposition Yposition Zposition Zrotation Xrotation Yrotation 
				JOINT Foot_L
				{
					OFFSET 40.9854 0.0 -1.26872e-05
					CHANNELS 6 Xposition Yposition Zposition Zrotation Xrotation Yrotation 
					JOINT Toes_L
					{
						OFFSET 11.7543 0.0 0.0
						CHANNELS 6 Xposition Yposition Zposition Zrotation Xrotation Yrotation 
						End Site
						{
							OFFSET 0.0 0.0 0.0
						}
					}
				}
			}
		}
		JOINT UpperLeg_R
		{
			OFFSET -2.19251 6.46944 0.0
			CHANNELS 6 Xposition Yposition Zposition Zrotation Xrotation Yrotation 
			JOINT LowerLeg_R
			{
				OFFSET -39.0811 -0.00228153 -0.0401928
				CHANNELS 6 Xposition Yposition Zposition Zrotation Xrotation Yrotation 
				JOINT Foot_R
				{
					OFFSET -40.9854 0.0 0.0
					CHANNELS 6 Xposition Yposition Zposition Zrotation Xrotation Yrotation 
					JOINT Toes_R
					{
						OFFSET -11.7543 0.0 0.0
						CHANNELS 6 Xposition Yposition Zposition Zrotation Xrotation Yrotation 
						End Site
						{
							OFFSET 0.0 0.0 0.0
						}
					}
				}
			}
		}
	}
}
MOTION
Frames:	4
Frame Time:	0.0333333
0.000000 0.000000 0.000000 0.000000 0.000000 -0.000000 0.047751 80.623500 -2.940770 91.188600 -1.031870 10.670000 15.735700 0.000005 -0.000001 95.611100 79.337600 -95.113900 8.984550 -0.406207 -0.000000 13.454100 2.087280 0.748457 16.377300 -0.000001 -0.000001 -0.716135 -7.472510 3.491710 6.456720 -0.000001 -0.000000 -4.349590 -12.456600 10.354300 12.994200 -0.242716 4.980390 -92.342700 6.548380 -70.265500 5.348090 -0.000007 -0.000001 -67.847000 5.949170 -13.729700 24.328600 0.000019 0.000005 0.194013 0.649538 -16.633600 22.291600 -0.000001 0.000005 14.722500 4.955980 8.242420 12.994500 -0.242716 -4.980390 88.702400 8.171740 -80.945700 -5.348130 -0.000001 -0.000004 -59.940400 20.440300 -7.144380 -24.328900 0.000322 -0.000009 -4.102450 -5.428620 -37.159500 -22.291500 -0.000108 -0.000004 18.600900 5.413650 -3.385890 -2.192480 -6.469440 -0.000000 -177.328000 -11.350600 -19.930600 39.081100 -0.000007 -0.000012 -0.245620 0.107021 66.457600 40.985400 -0.000006 -0.000013 3.729170 6.365540 -86.091100 11.754300 -0.000000 0.000003 -0.000221 -0.002012 -16.653200 -2.192510 6.469440 -0.000001 173.830000 16.638600 160.490000 -39.081100 -0.002282 -0.040193 0.126774 -0.050987 67.588400 -40.985400 0.000008 0.000006 6.204760 4.241390 -86.732200 -11.754300 -0.000006 -0.000006 -0.698796 -0.861255 -16.822400
0.000000 0.000000 0.000000 0.000000 0.000000 -0.000000 1.567590 81.754200 -2.326930 92.438900 -3.582330 10.818500 15.735700 0.000005 -0.000001 95.634300 79.724400 -93.955100 8.984550 -0.406207 -0.000000 12.663500 2.069900 3.128780 16.377300 -0.000001 -0.000001 0.011117 -6.374050 3.874940 6.456720 -0.000001 -0.000000 -4.132660 -10.178800 7.153680 12.994200 -0.242716 4.980390 -92.153200 5.813400 -69.635700 5.348090 -0.000007 -0.000001 -63.670000 -3.481100 -11.216300 24.328600 0.000019 0.000005 1.038630 3.644760 -15.917600 22.291600 -0.000001 0.000005 15.535900 4.900300 9.371150 12.994500 -0.242716 -4.980390 88.582100 8.220190 -80.178600 -5.348130 -0.000001 -0.000004 -58.607600 17.322000 -8.421690 -24.328900 0.000322 -0.000009 -3.825500 -5.811750 -33.431300 -22.291500 -0.000108 -0.000004 18.727000 5.387600 -2.539230 -2.192480 -6.469440 -0.000000 -179.314000 -13.837800 -17.283200 39.081100 -0.000007 -0.000012 -0.201583 0.103007 62.934700 40.985400 -0.000006 -0.000013 4.358020 5.450400 -85.237400 11.754300 -0.000000 0.000003 -0.000221 -0.002011 -16.653200 -2.192510 6.469440 -0.000001 171.977000 13.117700 161.819000 -39.081100 -0.002282 -0.040193 0.101224 -0.046145 64.798500 -40.985400 0.000008 0.000006 4.920510 4.548300 -85.437100 -11.754300 -0.000006 -0.000006 -0.538294 -0.661476 -16.774700
0.000000 0.000000 0.000000 0.000000 0.000000 -0.000000 3.015310 83.778300 -1.478670 93.577200 -5.493910 10.892200 15.735700 0.000005 -0.000001 96.311700 80.367100 -93.143600 8.984550 -0.406207 -0.000000 11.335600 2.200000 6.115650 16.377300 -0.000001 -0.000001 1.898890 -5.413660 3.590180 6.456720 -0.000001 -0.000000 -3.726090 -8.007210 2.373110 12.994200 -0.242716 4.980390 -91.625300 4.289330 -69.224600 5.348090 -0.000007 -0.000001 -57.883100 -16.562600 -12.179800 24.328600 0.000019 0.000005 0.508326 2.083560 -13.709700 22.291600 -0.000001 0.000005 16.548800 4.822560 10.887700 12.994500 -0.242716 -4.980390 88.545600 7.661280 -79.217300 -5.348130 -0.000001 -0.000004 -57.813700 13.020800 -7.599320 -24.328900 0.000322 -0.000009 -3.784390 -6.180370 -31.559800 -22.291500 -0.000108 -0.000004 19.607700 5.379300 -2.276600 -2.192480 -6.469440 -0.000000 178.787000 -15.737800 -13.343200 39.081100 -0.000007 -0.000012 -0.141142 0.093521 56.472800 40.985400 -0.000006 -0.000013 4.848800 4.857730 -82.966300 11.754300 -0.000000 0.000003 -0.000215 -0.001964 -16.651500 -2.192510 6.469440 -0.000001 169.967000 11.113200 164.643000 -39.081100 -0.002282 -0.040193 0.077127 -0.044002 59.237000 -40.985400 0.000008 0.000006 3.879710 5.676420 -82.877300 -11.754300 -0.000006 -0.000006 -0.330236 -0.406113 -16.909600
0.000000 0.000000 0.000000 0.000000 0.000000 -0.000000 4.140590 86.014200 -0.670365 94.520100 -6.614060 10.357200 15.735700 0.000005 -0.000001 98.142000 81.375500 -93.635600 8.984550 -0.406207 -0.000000 9.233170 2.487640 8.805110 16.377300 -0.000001 -0.000001 4.735370 -4.811300 3.096730 6.456720 -0.000001 -0.000000 -3.217000 -6.844200 -1.216360 12.994200 -0.242716 4.980390 -90.875900 2.295210 -69.105000 5.348090 -0.000007 -0.000001 -50.927800 -29.439500 -16.697800 24.328600 0.000019 0.000005 -0.546469 -2.083070 -14.690200 22.291600 -0.000001 0.000005 17.907400 4.826500 10.813800 12.994500 -0.242716 -4.980390 88.381900 7.435930 -77.686800 -5.348130 -0.000001 -0.000004 -55.906300 9.844970 -6.128650 -24.328900 0.000322 -0.000009 -4.750860 -8.168190 -30.320200 -22.291500 -0.000108 -0.000004 19.471700 5.394950 -2.774440 -2.192480 -6.469440 -0.000000 177.047000 -16.794500 -9.507220 39.081100 -0.000007 -0.000012 -0.059679 0.052685 48.563500 40.985400 -0.000006 -0.000013 5.104510 4.646290 -79.789100 11.754300 -0.000000 0.000003 -0.000145 -0.001414 -16.631300 -2.192510 6.469440 -0.000001 168.283000 10.658800 167.607000 -39.081100 -0.002282 -0.040193 0.059141 -0.043017 52.421900 -40.985400 0.000008 0.000006 3.311630 7.031680 -79.739400 -11.754300 -0.000006 -0.000006 -0.076530 -0.103841 -17.144200
